<?xml version="1.0" encoding="utf-8"?>
<!-- Generator: Adobe Illustrator 26.3.1, SVG Export Plug-In . SVG Version: 6.00 Build 0)  -->
<svg version="1.1" id="Layer_1" xmlns="http://www.w3.org/2000/svg" xmlns:xlink="http://www.w3.org/1999/xlink" x="0px" y="0px"
	 viewBox="0 0 40 40" style="enable-background:new 0 0 40 40;" xml:space="preserve">
<style type="text/css">
	.st0{fill:#006BE9;}
</style>
<g>
	<path class="st0" d="M0,0v40h40V0H0z M31.3,21.8L21.1,32c-0.5,0.5-1.1,0.7-1.8,0.7S18,32.4,17.5,32l-1.2-1.2
		c-0.5-0.5-0.7-1.1-0.7-1.8c0-0.6,0.3-1.3,0.7-1.8l3.7-3.7h-9.8C9,23.5,8,22.4,8,21v-2c0-1.4,1-2.5,2.3-2.5h9.8l-3.7-3.7
		c-0.4-0.6-0.6-1.2-0.6-1.8c0-0.6,0.3-1.3,0.7-1.8l1.2-1.1c0.3-0.4,0.9-0.7,1.6-0.7c0.6,0,1.3,0.3,1.8,0.7l10.2,10.2
		c0.4,0.3,0.7,1,0.7,1.7C32,20.6,31.7,21.3,31.3,21.8z"/>
	<path class="st0" d="M20.3,8.9c-0.6-0.6-1.6-0.6-1.9-0.1L17.1,10c-0.3,0.3-0.4,0.6-0.4,1c0,0.4,0.1,0.8,0.4,1.1l5.4,5.4H10.3
		C9.4,17.5,9,18.3,9,19v2c0,0.7,0.4,1.5,1.3,1.5h12.2L17.1,28c-0.3,0.3-0.5,0.7-0.5,1s0.2,0.8,0.5,1l1.2,1.2c0.6,0.6,1.5,0.6,2.1,0
		L30.5,21c0.3-0.3,0.5-0.7,0.5-1c0-0.4-0.1-0.7-0.4-0.9L20.3,8.9z"/>
</g>
</svg>
