<?xml version="1.0" encoding="utf-8"?>
<!-- Generator: Adobe Illustrator 26.3.1, SVG Export Plug-In . SVG Version: 6.00 Build 0)  -->
<svg version="1.1" id="Layer_1" xmlns="http://www.w3.org/2000/svg" xmlns:xlink="http://www.w3.org/1999/xlink" x="0px" y="0px"
	 viewBox="0 0 70.2 24" style="enable-background:new 0 0 70.2 24;" xml:space="preserve">
<style type="text/css">
	.st0{fill:#808285;}
</style>
<g>
	<path class="st0" d="M65.7,0H4.5C2,0,0,2,0,4.5v15C0,22,2,24,4.5,24h61.2c2.5,0,4.5-2,4.5-4.5v-15C70.2,2,68.2,0,65.7,0z
		 M16.1,20.9h-3.9L8,8.9v12H4.7V3.8h4l4.2,11.7V3.8h3.2V20.9z M27.9,20.8H18v-17h9.6v2.8h-6.1v4h5.8v2.8h-5.8V18h6.4V20.8z
		 M43.6,20.9h-3.9L38,8.5l-2,12.4h-3.9L29,3.8h3.3l1.9,12.7l2-12.7h3.3l2,12.7l1.9-12.7h3.3L43.6,20.9z M66.2,12.5
		c0,0.4-0.1,0.8-0.6,0.9c-0.1,0.1-0.3,0.1-0.4,0.1c-0.3,0-0.5-0.1-0.7-0.3L62.3,11L54,19.3c-0.4,0.4-1,0.4-1.4,0L51,17.7
		c-0.4-0.4-0.4-1,0-1.4L59.2,8L57,5.7c-0.2-0.3-0.3-0.7-0.2-1.1C56.9,4.2,57.3,4,57.7,4h7.5c0.5,0,1,0.5,1,1V12.5z"/>
</g>
</svg>
