<?xml version="1.0" encoding="utf-8"?>
<svg version="1.1" id="Layer_1" xmlns="http://www.w3.org/2000/svg" xmlns:xlink="http://www.w3.org/1999/xlink" x="0px" y="0px"
	 viewBox="0 0 32 32" style="enable-background:new 0 0 32 32;" xml:space="preserve">
<g id="icomoon-ignore">
</g>
<path d="M27.2,22.4v-3.2h-4.8v-4.8h-3.2v4.8h-4.8v3.2h4.8v4.8h3.2v-4.8H27.2z M28.8,9.5c0.9,0,1.7,0.3,2.3,0.9s0.9,1.4,0.9,2.3v16
	c0,0.9-0.3,1.7-0.9,2.3S29.7,32,28.8,32H3.2c-0.9,0-1.7-0.3-2.3-0.9S0,29.7,0,28.8V9.5c0-0.9,0.3-1.7,0.9-2.3s1.4-0.9,2.3-0.9h9.6
	L16,9.5H28.8z"/>
</svg>
