<?xml version="1.0" encoding="UTF-8"?>
<svg id="a" data-name="Layer 1" xmlns="http://www.w3.org/2000/svg" viewBox="0 0 81.74 32">
  <path d="m80.7,19.97c-1.21-.15-1.9-.87-2.2-2.08-.95-3.91-1.96-7.81-2.92-11.72C74.64,2.34,71.7,0,67.76,0,49.84,0,31.92,0,14,0c-3.95,0-6.9,2.33-7.85,6.14-.98,3.94-1.97,7.88-2.94,11.82-.26,1.06-.87,1.82-1.94,1.96C.18,20.06,0,20.64,0,21.58c.03,2.88,0,5.76.01,8.64,0,1.63.16,1.78,1.83,1.78,13.01,0,26.02,0,39.03,0,13.08,0,26.16,0,39.24,0,1.37,0,1.61-.23,1.61-1.58,0-3.05,0-6.11.02-9.17,0-.73-.22-1.19-1.03-1.29ZM62.16,2.06c1.96,0,3.93-.01,5.89,0,2.65.02,4.8,1.68,5.46,4.24,1,3.9,1.96,7.81,2.94,11.71.16.64.37,1.26.57,1.96h-1.11c-8.07,0-16.13,0-24.2,0-2.02,0-2.65-.48-3.15-2.47-.96-3.79-1.94-7.57-2.84-11.37-.36-1.5-1.05-2.78-2.26-4.08,6.43,0,12.56,0,18.7,0Zm17.58,26.8c.03.91-.28,1.09-1.13,1.09-12.59-.03-25.18-.02-37.77-.02s-25.11,0-37.67.02c-.89,0-1.23-.17-1.19-1.14.08-2.03.04-4.07.01-6.11,0-.56.14-.87.69-1.12,1.28-.58,2.09-1.59,2.43-2.98,1.01-4.08,2.04-8.15,3.09-12.22.68-2.65,2.79-4.31,5.5-4.32,8.21,0,16.41,0,24.62.02,2.45,0,4.67,1.81,5.27,4.2,1,3.99,1.98,7.98,2.97,11.97.61,2.49,2.26,3.81,4.82,3.81,9.05,0,18.1.02,27.15-.02.98,0,1.25.27,1.21,1.23-.07,1.86-.07,3.72,0,5.58Z"/>
  <path d="m55.38,12.01c.81-.01,1.62.03,2.42-.01.62-.04.79.2.76.79-.04.84-.02,1.69,0,2.53,0,.68.4,1,1.02,1.09.68-.12.99-.54,1.01-1.17.02-.74.05-1.48,0-2.21-.05-.74.12-1.12.96-1.02.66.07,1.33,0,2,.02.7.02,1.32-.12,1.33-.96.02-.9-.64-1.06-1.37-1.06-.67,0-1.34-.05-2,.01-.76.07-.98-.25-.93-.97.05-.73.03-1.48,0-2.21-.03-.67-.33-1.17-1.08-1.14-.7.03-.95.49-.95,1.14,0,.7-.05,1.41.01,2.11.07.8-.15,1.16-1.02,1.07-.73-.07-1.47-.02-2.21,0-.64.02-1.13.32-1.14.99,0,.72.47,1.04,1.18,1.03Z"/>
</svg>