<?xml version="1.0" encoding="utf-8"?>
<svg version="1.1" id="Layer_1" xmlns="http://www.w3.org/2000/svg" xmlns:xlink="http://www.w3.org/1999/xlink" x="0px" y="0px" viewBox="0 0 32 17.3" style="enable-background:new 0 0 32 17.3;" xml:space="preserve">
<style type="text/css">
	.st0{fill:url(#SVGID_1_);}
</style>
<linearGradient id="SVGID_1_" gradientUnits="userSpaceOnUse" x1="-344.6015" y1="393.2401" x2="-343.5404" y2="391.8188" gradientTransform="matrix(24.608 0 0 -13.3 8484.2012 5230.2349)">
	<stop  offset="4.200000e-02" style="stop-color:#21DBAA"/>
	<stop  offset="0.358" style="stop-color:#00B4EF"/>
	<stop  offset="0.433" style="stop-color:#01A7EC"/>
	<stop  offset="0.568" style="stop-color:#0487E4"/>
	<stop  offset="0.68" style="stop-color:#0768DD"/>
	<stop  offset="0.965" style="stop-color:#5F1AE5"/>
</linearGradient>
<path class="st0" d="M26.9,0l-3.6,12.7h0L19.4,0h-8.5L7.9,5.2L4.8,0H0.5l5,8.2L0,17.3h4l3.5-6l3.7,6h6.5v-12h0
	c0.1,0.5,0.2,0.9,0.3,1.3c0.1,0.4,0.2,0.7,0.2,1l0.2,0.9l0.3,0.9l2.6,7.9h3.4l2.6-7.9c0.2-0.6,0.4-1.3,0.5-1.8
	c0.2-0.7,0.3-1.3,0.4-2h0v11.8H32V0L26.9,0z M9.8,8.2l4.5-7.5v14.8L9.8,8.2z"/>
</svg>
