<?xml version="1.0" encoding="utf-8"?>
<svg version="1.1" id="Layer_1" xmlns="http://www.w3.org/2000/svg" xmlns:xlink="http://www.w3.org/1999/xlink" x="0px" y="0px"
	 viewBox="0 0 26.1 32" style="enable-background:new 0 0 26.1 32;" xml:space="preserve">
<style type="text/css">
	.st0{fill:#0E2947;}
</style>
<g>
	<g>
		<path class="st0" d="M4.9,13c0,0,1.4-1.9,3.2-2c2.8-0.1,5.1,5,5.4,5.7C16.7,9.9,21.9,3.9,26,0H0.3c0,2.4,0,26.8,0,28.8
			c0,1.6-0.2,2.7-0.3,3.2c1.2-0.2,5.4-0.9,9.9-2.5c7.8-2.8,10.8-5.8,10.9-5.8l0.2-0.2l0.1,0.2c0,0,1,2.1,2,3.3
			c1.1,1.3,1.7,1.4,2,1.3c0.5-0.1,0.8-0.9,0.9-2s0.2-3.8,0.2-7c0-5.7,0-13.3,0-17.2C18.6,11.5,13,25.4,13,25.4S9.3,13,4.9,13z"/>
	</g>
</g>
</svg>
