<?xml version="1.0" encoding="utf-8"?>
<!-- Generator: Adobe Illustrator 26.3.1, SVG Export Plug-In . SVG Version: 6.00 Build 0)  -->
<svg version="1.1" id="Layer_1" xmlns="http://www.w3.org/2000/svg" xmlns:xlink="http://www.w3.org/1999/xlink" x="0px" y="0px"
	 viewBox="0 0 40 40" style="enable-background:new 0 0 40 40;" xml:space="preserve">
<style type="text/css">
	.st0{fill:#D68600;}
</style>
<g>
	<path class="st0" d="M0,0v40h40V0H0z M20.4,36.3L20,36.8l-0.4-0.5C19.2,35.8,9.5,24.1,9.5,14C9.5,8.2,14.2,3.5,20,3.5
		c5.8,0,10.5,4.7,10.5,10.5C30.5,24.1,20.8,35.8,20.4,36.3z"/>
	<path class="st0" d="M20,4.5c-5.2,0-9.5,4.3-9.5,9.5c0,8.6,7.7,18.9,9.5,21.2c1.8-2.3,9.5-12.6,9.5-21.2C29.5,8.8,25.2,4.5,20,4.5z
		 M20,20.6c-3.7,0-6.6-2.9-6.6-6.6c0-3.7,2.9-6.6,6.6-6.6s6.6,2.9,6.6,6.6C26.6,17.7,23.7,20.6,20,20.6z"/>
	<path class="st0" d="M20,8.4c-3.1,0-5.6,2.5-5.6,5.6s2.5,5.6,5.6,5.6c3.1,0,5.6-2.5,5.6-5.6S23.1,8.4,20,8.4z M20,18.4
		c-2.4,0-4.4-2-4.4-4.4s2-4.4,4.4-4.4c2.5,0,4.4,1.9,4.4,4.4S22.5,18.4,20,18.4z"/>
	<path class="st0" d="M20,10.6c-1.9,0-3.4,1.5-3.4,3.4c0,1.9,1.5,3.4,3.4,3.4c1.9,0,3.4-1.5,3.4-3.4S21.9,10.6,20,10.6z"/>
</g>
</svg>
