<?xml version="1.0" encoding="utf-8"?>
<!-- Generator: Adobe Illustrator 26.3.1, SVG Export Plug-In . SVG Version: 6.00 Build 0)  -->
<svg version="1.1" id="Layer_1" xmlns="http://www.w3.org/2000/svg" xmlns:xlink="http://www.w3.org/1999/xlink" x="0px" y="0px"
	 viewBox="0 0 40 40" style="enable-background:new 0 0 40 40;" xml:space="preserve">
<style type="text/css">
	.st0{fill:#D68600;}
	.st1{fill:none;stroke:#FEF8E4;stroke-miterlimit:10;}
</style>
<rect y="0" class="st0" width="40" height="40"/>
<path class="st1" d="M20,4c-5.5,0-10,4.5-10,10c0,10,10,22,10,22s10-12,10-22C30,8.5,25.5,4,20,4z M20,20.1c-3.4,0-6.1-2.7-6.1-6.1
	s2.7-6.1,6.1-6.1s6.1,2.7,6.1,6.1S23.4,20.1,20,20.1z M16.1,14c0-2.1,1.7-3.9,3.9-3.9s3.9,1.7,3.9,3.9s-1.7,3.9-3.9,3.9
	S16.1,16.1,16.1,14z"/>
</svg>
