<?xml version="1.0" encoding="utf-8"?>
<!-- Generator: Adobe Illustrator 27.7.0, SVG Export Plug-In . SVG Version: 6.00 Build 0)  -->
<svg version="1.1" id="Layer_1" xmlns="http://www.w3.org/2000/svg" xmlns:xlink="http://www.w3.org/1999/xlink" x="0px" y="0px"
	 viewBox="0 0 32 32" style="enable-background:new 0 0 32 32;" xml:space="preserve">
<style type="text/css">
	.st0{fill:#FF0000;}
</style>
<path class="st0" d="M31.3,8.3c-0.4-1.4-1.4-2.4-2.8-2.8l0,0C26,4.8,16,4.8,16,4.8S6,4.8,3.5,5.5C2.1,5.9,1.1,6.9,0.7,8.2l0,0
	c-0.4,2.3-0.7,5-0.7,7.6c0,0.1,0,0.1,0,0.2l0,0v0.1c0,2.7,0.3,5.3,0.7,7.8v-0.3C1.1,25,2.1,26,3.5,26.4l0,0C6,27.2,16,27.2,16,27.2
	s10,0,12.5-0.7c1.4-0.4,2.4-1.4,2.8-2.8l0,0c0.4-2.2,0.7-4.8,0.7-7.4c0-0.1,0-0.2,0-0.3l0,0c0-0.1,0-0.2,0-0.3
	c0-2.6-0.2-5.2-0.7-7.7V8.3L31.3,8.3z M12.8,20.8v-9.6l8.4,4.8L12.8,20.8z"/>
</svg>
